<?xml version="1.0" encoding="iso-8859-1"?>
<!-- Uploaded to: SVG Repo, www.svgrepo.com, Transformed by: SVG Repo Tools -->
<svg fill="#000000" height="800px" width="800px" version="1.1" xmlns="http://www.w3.org/2000/svg" xmlns:xlink="http://www.w3.org/1999/xlink"
	 viewBox="0 0 512 512" xml:space="preserve">
	<path d="M256,0C114.842,0,0,114.842,0,256s114.842,256,256,256s256-114.842,256-256S397.158,0,256,0z M256,482.743 C130.974,482.743,29.257,381.026,29.257,256S130.974,29.257,256,29.257S482.743,130.974,482.743,256S381.026,482.743,256,482.743z"/>
	<path d="M266.243,416.5c-8.078,0-14.629,6.557-14.629,14.636c0,8.079,6.551,14.629,14.629,14.629s14.629-6.551,14.629-14.629 v-0.013C280.872,423.044,274.321,416.5,266.243,416.5z"/>
	<path d="M432.599,248.117c-8.078,0-14.629,6.551-14.629,14.629c0,67.634-43.33,126.623-107.82,146.786 c-7.711,2.409-12.007,10.616-9.596,18.327c1.956,6.257,7.728,10.268,13.957,10.268c1.445,0,2.917-0.216,4.37-0.671 c36.419-11.385,69.113-34.578,92.058-65.3c23.741-31.792,36.289-69.625,36.289-109.409 C447.228,254.667,440.677,248.117,432.599,248.117z"/>
	<path d="m357.6,235.6h-81.2v-81.2c0-11.3-9.1-20.4-20.4-20.4-11.3,0-20.4,9.1-20.4,20.4v81.2h-81.2c-11.3,0-20.4,9.1-20.4,20.4s9.1,20.4 20.4,20.4h81.2v81.2c0,11.3 9.1,20.4 20.4,20.4 11.3,0 20.4-9.1 20.4-20.4v-81.2h81.2c11.3,0 20.4-9.1 20.4-20.4s-9.1-20.4-20.4-20.4z"/>
</svg>
